<svg width="90%" height="90%" viewBox="0 0 64 64" id="icons" xmlns="http://www.w3.org/2000/svg" fill="535c91" stroke="535c91"><g id="SVGRepo_iconCarrier"><defs><style>.cls-1{fill:#535c91}</style></defs><path class="cls-1" d="M57.56 11.35l-25-7.26a2 2 0 00-1.14 0h0l-25 7.27A2 2 0 005 13.27V35.1c0 19 25.43 25.57 26.52 25.84A2 2 0 0032 61a1.77 1.77 0 00.52-.07C34.08 60.54 59 53.92 59 35.1V13.27a2 2 0 00-1.44-1.92zM55 35.1C55 49.7 35.36 56 32 56.93 28.64 56 9 49.73 9 35.1V14.78l23-6.7 23 6.7z"/><path class="cls-1" d="M30 20v2.09A6 6 0 0031 34h3a2 2 0 010 4h-6a2 2 0 000 4h2v2a2 2 0 004 0v-2a6 6 0 000-12h-3a2 2 0 010-4h6a2 2 0 000-4h-3v-2a2 2 0 00-4 0z"/></g></svg>