<svg version="1.1" id="Icons" xmlns="http://www.w3.org/2000/svg" viewBox="0 0 32 32" xml:space="preserve" width="800" height="800" fill="#000"><g id="SVGRepo_iconCarrier"><style>.st0{fill:none;stroke:#535c91;stroke-width:2;stroke-linecap:round;stroke-linejoin:round;stroke-miterlimit:10}</style><path class="st0" d="M22 12v8h4"/><path class="st0" d="M29 24H3c-1.1 0-2-.9-2-2V10c0-1.1.9-2 2-2h26c1.1 0 2 .9 2 2v12c0 1.1-.9 2-2 2z"/><path class="st0" d="M10 14c0-1.1-.9-2-2-2s-2 .9-2 2 .9 2 2 2 2 .9 2 2-.9 2-2 2-2-.9-2-2m12-4c0-1.1-.9-2-2-2s-2 .9-2 2 .9 2 2 2 2 .9 2 2-.9 2-2 2-2-.9-2-2"/></g></svg>